<mxfile host="app.diagrams.net" agent="Mozilla/5.0 (Windows NT 10.0; Win64; x64) AppleWebKit/537.36 (KHTML, like Gecko) Chrome/138.0.0.0 Safari/537.36 Edg/138.0.0.0" version="28.0.4">
  <diagram name="Page-1" id="28wCIs6dMHjloTsGLdl1">
    <mxGraphModel dx="778" dy="426" grid="1" gridSize="10" guides="1" tooltips="1" connect="1" arrows="1" fold="1" page="1" pageScale="1" pageWidth="850" pageHeight="1100" math="0" shadow="0">
      <root>
        <mxCell id="0" />
        <mxCell id="1" parent="0" />
        <mxCell id="-XmGPj9tXlUXmcEVxjgT-1" value="&lt;b&gt;Report Ingestion&amp;nbsp;&lt;/b&gt;&lt;div&gt;&lt;b&gt;MS&lt;/b&gt;&lt;/div&gt;&lt;div&gt;&lt;br&gt;&lt;/div&gt;&lt;div&gt;TASKS:-&lt;/div&gt;&lt;div&gt;- Reads the source data&lt;/div&gt;&lt;div&gt;- Analyze the source data&lt;/div&gt;" style="rounded=0;whiteSpace=wrap;html=1;" vertex="1" parent="1">
          <mxGeometry x="370" y="105" width="120" height="160" as="geometry" />
        </mxCell>
        <mxCell id="-XmGPj9tXlUXmcEVxjgT-2" value="" style="endArrow=classic;html=1;rounded=0;" edge="1" parent="1" source="-XmGPj9tXlUXmcEVxjgT-8">
          <mxGeometry width="50" height="50" relative="1" as="geometry">
            <mxPoint x="320" y="250" as="sourcePoint" />
            <mxPoint x="360" y="200" as="targetPoint" />
          </mxGeometry>
        </mxCell>
        <mxCell id="-XmGPj9tXlUXmcEVxjgT-3" value="" style="endArrow=classic;html=1;rounded=0;exitX=0.947;exitY=0.4;exitDx=0;exitDy=0;exitPerimeter=0;" edge="1" parent="1" source="-XmGPj9tXlUXmcEVxjgT-6">
          <mxGeometry width="50" height="50" relative="1" as="geometry">
            <mxPoint x="320" y="230" as="sourcePoint" />
            <mxPoint x="370" y="180" as="targetPoint" />
            <Array as="points" />
          </mxGeometry>
        </mxCell>
        <mxCell id="-XmGPj9tXlUXmcEVxjgT-4" value="" style="endArrow=classic;html=1;rounded=0;" edge="1" parent="1">
          <mxGeometry width="50" height="50" relative="1" as="geometry">
            <mxPoint x="270" y="100" as="sourcePoint" />
            <mxPoint x="370" y="145" as="targetPoint" />
            <Array as="points" />
          </mxGeometry>
        </mxCell>
        <mxCell id="-XmGPj9tXlUXmcEVxjgT-5" value="PDF" style="text;html=1;align=center;verticalAlign=middle;resizable=0;points=[];autosize=1;strokeColor=none;fillColor=none;" vertex="1" parent="1">
          <mxGeometry x="230" y="90" width="50" height="30" as="geometry" />
        </mxCell>
        <mxCell id="-XmGPj9tXlUXmcEVxjgT-6" value="PPT&lt;span style=&quot;color: rgba(0, 0, 0, 0); font-family: monospace; font-size: 0px; text-align: start;&quot;&gt;%3CmxGraphModel%3E%3Croot%3E%3CmxCell%20id%3D%220%22%2F%3E%3CmxCell%20id%3D%221%22%20parent%3D%220%22%2F%3E%3CmxCell%20id%3D%222%22%20value%3D%22PDF%22%20style%3D%22text%3Bhtml%3D1%3Balign%3Dcenter%3BverticalAlign%3Dmiddle%3Bresizable%3D0%3Bpoints%3D%5B%5D%3Bautosize%3D1%3BstrokeColor%3Dnone%3BfillColor%3Dnone%3B%22%20vertex%3D%221%22%20parent%3D%221%22%3E%3CmxGeometry%20x%3D%2230%22%20y%3D%2290%22%20width%3D%2250%22%20height%3D%2230%22%20as%3D%22geometry%22%2F%3E%3C%2FmxCell%3E%3C%2Froot%3E%3C%2FmxGraphModel%3E&lt;/span&gt;" style="text;html=1;align=center;verticalAlign=middle;resizable=0;points=[];autosize=1;strokeColor=none;fillColor=none;" vertex="1" parent="1">
          <mxGeometry x="230" y="140" width="50" height="30" as="geometry" />
        </mxCell>
        <mxCell id="-XmGPj9tXlUXmcEVxjgT-7" value="EXCEL" style="text;html=1;align=center;verticalAlign=middle;resizable=0;points=[];autosize=1;strokeColor=none;fillColor=none;" vertex="1" parent="1">
          <mxGeometry x="225" y="180" width="60" height="30" as="geometry" />
        </mxCell>
        <mxCell id="-XmGPj9tXlUXmcEVxjgT-8" value="POWERBI/TABLEU&lt;div&gt;&lt;br&gt;&lt;/div&gt;" style="text;html=1;align=center;verticalAlign=middle;resizable=0;points=[];autosize=1;strokeColor=none;fillColor=none;" vertex="1" parent="1">
          <mxGeometry x="190" y="225" width="130" height="40" as="geometry" />
        </mxCell>
        <mxCell id="-XmGPj9tXlUXmcEVxjgT-9" value="CSV FILES" style="text;html=1;align=center;verticalAlign=middle;resizable=0;points=[];autosize=1;strokeColor=none;fillColor=none;" vertex="1" parent="1">
          <mxGeometry x="210" y="258" width="80" height="30" as="geometry" />
        </mxCell>
        <mxCell id="-XmGPj9tXlUXmcEVxjgT-10" value="" style="endArrow=classic;html=1;rounded=0;exitX=0.95;exitY=0.378;exitDx=0;exitDy=0;exitPerimeter=0;entryX=0.006;entryY=0.878;entryDx=0;entryDy=0;entryPerimeter=0;" edge="1" parent="1" source="-XmGPj9tXlUXmcEVxjgT-7" target="-XmGPj9tXlUXmcEVxjgT-1">
          <mxGeometry width="50" height="50" relative="1" as="geometry">
            <mxPoint x="290" y="250" as="sourcePoint" />
            <mxPoint x="340" y="200" as="targetPoint" />
          </mxGeometry>
        </mxCell>
        <mxCell id="-XmGPj9tXlUXmcEVxjgT-11" value="" style="endArrow=classic;html=1;rounded=0;exitX=1.025;exitY=0.6;exitDx=0;exitDy=0;exitPerimeter=0;" edge="1" parent="1" source="-XmGPj9tXlUXmcEVxjgT-9">
          <mxGeometry width="50" height="50" relative="1" as="geometry">
            <mxPoint x="330" y="255" as="sourcePoint" />
            <mxPoint x="370" y="210" as="targetPoint" />
          </mxGeometry>
        </mxCell>
      </root>
    </mxGraphModel>
  </diagram>
</mxfile>
